<svg width="57" height="57" viewBox="0 0 57 57" fill="none" xmlns="http://www.w3.org/2000/svg">
<path d="M28.5 52.6154C27.761 52.6154 27.0298 52.5822 26.3077 52.5171C14.7386 51.4745 5.52548 42.2614 4.48293 30.6923H0" stroke="url(#paint0_linear)" stroke-width="2"/>
<path d="M4.3846 28.5C4.3846 15.9205 14.0165 5.59055 26.3077 4.48293V0" stroke="url(#paint1_linear)" stroke-width="2"/>
<path d="M52.6154 28.5C52.6154 41.0795 42.9835 51.4095 30.6923 52.5171V57" stroke="url(#paint2_linear)" stroke-width="2"/>
<path d="M28.5 4.3846C41.0795 4.3846 51.4095 14.0165 52.5171 26.3077H57" stroke="url(#paint3_linear)" stroke-width="2"/>
<path d="M48 28.5C48 39.2696 39.2696 48 28.5 48C21.8112 48 15.909 44.6323 12.3965 39.5C10.2535 36.3688 9 32.5808 9 28.5C9 17.7304 17.7304 9 28.5 9C36.4186 9 43.2348 13.72 46.2887 20.5C47.3882 22.941 48 25.6491 48 28.5Z" fill="#C4C4C4"/>
<path d="M28.5 9C17.7304 9 9 17.7304 9 28.5C9 32.5808 10.2535 36.3688 12.3965 39.5L22.5 30L31 37L46.2887 20.5C43.2348 13.72 36.4186 9 28.5 9Z" fill="url(#paint4_linear)"/>
<path d="M28.5 48C39.2696 48 48 39.2696 48 28.5C48 25.6491 47.3882 22.941 46.2887 20.5L31 37L22.5 30L12.3965 39.5C15.909 44.6323 21.8112 48 28.5 48Z" fill="url(#paint5_linear)"/>
<path d="M12 40L22.2846 30L31 37L45 22" stroke="#1C1C1C" stroke-width="3"/>
<path d="M47 20L45.8264 25.8936L40.7471 21.1064L47 20Z" fill="#1C1C1C"/>
<path d="M25.1707 31C25.1707 32.6569 23.8276 34 22.1707 34C20.5138 34 19.1707 32.6569 19.1707 31C19.1707 29.3431 20.5138 28 22.1707 28C23.8276 28 25.1707 29.3431 25.1707 31Z" fill="#1C1C1C"/>
<path d="M16 39C16 40.6569 14.6569 42 13 42C11.3431 42 10 40.6569 10 39C10 37.3431 11.3431 36 13 36C14.6569 36 16 37.3431 16 39Z" fill="#1C1C1C"/>
<path d="M34 36.5C34 38.1569 32.6569 39.5 31 39.5C29.3431 39.5 28 38.1569 28 36.5C28 34.8431 29.3431 33.5 31 33.5C32.6569 33.5 34 34.8431 34 36.5Z" fill="#1C1C1C"/>
<path d="M35 9H39V25.2872L35 29.6855V9Z" fill="#1C1C1C"/>
<path d="M35 9H39V25.2872L35 29.6855V9Z" fill="#1C1C1C"/>
<path d="M27 14H31V32.7334C30.5071 32.6933 30.1877 32.5175 29.5 33L27 31V14Z" fill="#1C1C1C"/>
<path d="M27 14H31V32.7334C30.5071 32.6933 30.1877 32.5175 29.5 33L27 31V14Z" fill="#1C1C1C"/>
<path d="M19 17H23V27.5C20.4122 27.0511 19.7685 28.266 19 29.2291V17Z" fill="#1C1C1C"/>
<path d="M19 17H23V27.5C20.4122 27.0511 19.7685 28.266 19 29.2291V17Z" fill="#1C1C1C"/>
<path d="M11 23H15V34L13.5 35.5C13.2135 35.2876 12.2581 35.2679 11 36V23Z" fill="#1C1C1C"/>
<defs>
<linearGradient id="paint0_linear" x1="14.25" y1="30.6923" x2="14.25" y2="52.6154" gradientUnits="userSpaceOnUse">
<stop stop-color="#E17232"/>
<stop offset="1" stop-color="#E1B032" stop-opacity="0"/>
</linearGradient>
<linearGradient id="paint1_linear" x1="15.3461" y1="0" x2="15.3461" y2="28.5" gradientUnits="userSpaceOnUse">
<stop stop-color="#3DB4E5"/>
<stop offset="1" stop-color="#7546F9" stop-opacity="0"/>
</linearGradient>
<linearGradient id="paint2_linear" x1="41.6539" y1="57" x2="41.6539" y2="28.5" gradientUnits="userSpaceOnUse">
<stop stop-color="#3DB4E5"/>
<stop offset="1" stop-color="#7546F9" stop-opacity="0"/>
</linearGradient>
<linearGradient id="paint3_linear" x1="57" y1="15.3461" x2="28.5" y2="15.3461" gradientUnits="userSpaceOnUse">
<stop stop-color="#E17232"/>
<stop offset="1" stop-color="#E1B032" stop-opacity="0"/>
</linearGradient>
<linearGradient id="paint4_linear" x1="27.6444" y1="9" x2="27.6444" y2="39.5" gradientUnits="userSpaceOnUse">
<stop stop-color="#3DB4E5"/>
<stop offset="1" stop-color="#7546F9" stop-opacity="0"/>
</linearGradient>
<linearGradient id="paint5_linear" x1="30.1982" y1="20.5" x2="30.1982" y2="48" gradientUnits="userSpaceOnUse">
<stop stop-color="#FF5D00"/>
<stop offset="1" stop-color="#E1B032" stop-opacity="0"/>
</linearGradient>
</defs>
</svg>
